<svg width="250" height="21" viewBox="0 0 250 21" fill="none" xmlns="http://www.w3.org/2000/svg">
<path d="M219.171 18.2405C217.855 16.7037 217.194 14.7331 217.325 12.7352C217.298 10.4733 217.791 8.23427 218.765 6.18138C219.608 4.32924 220.965 2.74311 222.683 1.60157C224.324 0.539073 226.256 -0.0178997 228.227 0.00297571C229.692 -0.0342082 231.145 0.277571 232.459 0.911267L231.837 2.12232C231.296 1.84045 230.72 1.62842 230.122 1.49157C229.502 1.34132 228.866 1.2644 228.227 1.26247C226.503 1.23764 224.812 1.72752 223.383 2.66629C221.886 3.69391 220.716 5.11096 220.006 6.75562C219.161 8.61988 218.737 10.6396 218.763 12.6777C218.65 14.3573 219.194 16.0163 220.287 17.3201C220.854 17.8813 221.538 18.317 222.293 18.5974C223.048 18.8778 223.856 18.9963 224.663 18.9449C226.087 18.9231 227.499 18.6925 228.852 18.2606V19.5232C227.445 19.9577 225.978 20.1796 224.502 20.1812C223.523 20.2467 222.541 20.1074 221.621 19.7727C220.702 19.4379 219.867 18.9155 219.171 18.2405ZM183.118 19.178C183.094 18.7554 183.215 18.3371 183.462 17.9892C183.573 17.8475 183.718 17.7339 183.883 17.658C184.049 17.5821 184.23 17.5462 184.413 17.5532C185.02 17.5532 185.323 17.8755 185.323 18.52C185.341 18.938 185.222 19.3509 184.982 19.6978C184.88 19.8442 184.742 19.9633 184.581 20.0442C184.419 20.1252 184.239 20.1653 184.058 20.161C183.431 20.161 183.118 19.8333 183.118 19.178ZM244.367 19.9168L246.447 10.2606H235.972L233.918 19.9168H232.499L236.769 0.285556H238.174L236.258 9.00112H246.732L248.621 0.285556H250L245.744 19.9198L244.367 19.9168ZM201.682 19.9168L205.954 0.282528H215.974L215.684 1.54505H207.088L205.475 8.97185H213.606L213.316 10.2344H205.21L203.345 18.6542H211.987L211.704 19.9198L201.682 19.9168ZM191.332 19.9168L195.315 1.54909H189.36L189.635 0.286565H203.046L202.785 1.54909H196.721L192.737 19.9168H191.332ZM156.885 19.9168L157.354 17.7974H173.589C174.006 17.7928 174.408 17.6404 174.719 17.3685C175.057 17.1132 175.295 16.7533 175.394 16.3482L176.194 12.6282C176.22 12.5181 176.234 12.4053 176.235 12.2922C176.239 12.0423 176.151 11.7994 175.988 11.6069C175.872 11.4668 175.725 11.3549 175.557 11.2802C175.39 11.2055 175.206 11.1702 175.022 11.177H162.315C161.88 11.198 161.446 11.1174 161.05 10.9418C160.653 10.7662 160.306 10.5008 160.036 10.1678C159.653 9.69327 159.449 9.10515 159.457 8.50156C159.459 8.24452 159.487 7.98827 159.54 7.73658L160.27 4.37993C160.485 3.41125 161.041 2.54638 161.842 1.93562C162.594 1.29399 163.557 0.935974 164.556 0.926407H180.935L180.467 3.0619H164.092C163.71 3.06635 163.342 3.20463 163.056 3.45146C162.748 3.68085 162.533 4.009 162.45 4.37791L161.719 7.73456C161.692 7.8309 161.678 7.93034 161.678 8.03026C161.677 8.26116 161.76 8.48492 161.912 8.66202C162.017 8.78592 162.15 8.88432 162.301 8.94947C162.452 9.01463 162.616 9.04474 162.781 9.03745H175.49C175.942 9.0162 176.392 9.10155 176.803 9.28622C177.213 9.47089 177.572 9.74943 177.848 10.0981C178.257 10.5868 178.477 11.2002 178.469 11.831C178.467 12.0977 178.435 12.3634 178.373 12.6232L177.573 16.3431C177.344 17.3409 176.77 18.2316 175.947 18.8662C175.163 19.5319 174.161 19.9033 173.122 19.9137L156.885 19.9168ZM141.917 19.9168C141.001 19.9837 140.085 19.7769 139.292 19.324C138.499 18.8711 137.866 18.1936 137.478 17.3816C136.801 18.1702 135.956 18.8057 135.002 19.2441C134.048 19.6824 133.007 19.913 131.952 19.9198H126.632C125.885 19.9545 125.14 19.8154 124.459 19.5141C123.779 19.2128 123.181 18.7579 122.717 18.187C122.052 17.3704 121.697 16.3551 121.711 15.3127C121.714 14.8744 121.764 14.4377 121.862 14.0098L124.715 0.916314H126.89L124.04 14.0098C123.978 14.2832 123.945 14.5624 123.944 14.8424C123.937 15.5101 124.166 16.1599 124.592 16.6822C124.891 17.0474 125.274 17.3385 125.71 17.5315C126.146 17.7245 126.623 17.8139 127.101 17.7924H132.421C133.518 17.7854 134.576 17.391 135.398 16.6822C136.276 16.0141 136.889 15.0694 137.131 14.0098L139.984 0.916314H142.176L139.325 14.0098C139.262 14.2832 139.23 14.5624 139.228 14.8424C139.221 15.51 139.449 16.1598 139.876 16.6822C140.173 17.0489 140.555 17.341 140.992 17.5341C141.428 17.7272 141.906 17.8158 142.384 17.7924H147.695C148.797 17.7839 149.858 17.3898 150.686 16.6822C151.558 16.0112 152.167 15.0673 152.408 14.0098L155.256 0.916314H157.448L154.597 14.0098C154.221 15.6657 153.266 17.1426 151.895 18.187C150.601 19.2912 148.943 19.906 147.223 19.9198L141.917 19.9168ZM100.943 19.9168C100.194 19.9511 99.4476 19.8123 98.7646 19.5116C98.0816 19.211 97.4813 18.757 97.0129 18.187C96.348 17.3704 95.9927 16.3551 96.0072 15.3127C96.01 14.8744 96.0607 14.4377 96.1585 14.0098L97.7121 6.83838C98.0837 5.17978 99.0352 3.69856 100.404 2.64812C101.706 1.54828 103.367 0.934578 105.091 0.916314H115.055C115.802 0.881683 116.546 1.02068 117.227 1.32181C117.908 1.62295 118.505 2.07757 118.969 2.64812C119.644 3.46558 120.005 4.48668 119.99 5.53548C119.986 5.97342 119.936 6.40981 119.838 6.83737L118.281 14.0098C117.906 15.6657 116.95 17.1426 115.579 18.187C114.283 19.2887 112.626 19.9032 110.906 19.9198L100.943 19.9168ZM101.645 4.14983C100.763 4.82117 100.15 5.77077 99.9089 6.83535L98.3552 14.0068C98.2926 14.2802 98.2604 14.5593 98.2589 14.8394C98.2491 15.5078 98.4763 16.1591 98.9021 16.6833C99.199 17.0499 99.5816 17.342 100.018 17.5351C100.454 17.7282 100.932 17.8168 101.411 17.7934H111.375C112.473 17.7863 113.53 17.3919 114.352 16.6833C115.231 16.0156 115.845 15.0709 116.088 14.0109L117.642 6.83939C117.705 6.56607 117.737 6.2869 117.738 6.00678C117.747 5.33471 117.518 4.68007 117.091 4.15286C116.794 3.78622 116.411 3.49413 115.975 3.301C115.538 3.10788 115.061 3.01932 114.582 3.04272H104.621C103.524 3.04998 102.466 3.44435 101.644 4.15286L101.645 4.14983ZM77.6903 19.9198C77.254 19.9412 76.8188 19.8608 76.4209 19.6852C76.0229 19.5097 75.6738 19.2441 75.4024 18.9106C75.018 18.4322 74.8136 17.8398 74.8234 17.2323C74.8249 16.9752 74.8526 16.719 74.9063 16.4673L78.2962 0.915304H80.4878L77.0968 16.4673C77.0701 16.5682 77.0562 16.6719 77.0554 16.7761C77.054 17.0045 77.1317 17.2268 77.276 17.4069C77.3808 17.5353 77.5155 17.6377 77.669 17.7054C77.8224 17.7732 77.9902 17.8044 78.1585 17.7964H91.7483L91.2802 19.9158L77.6903 19.9198ZM52.0549 19.9198L55.4448 4.36782C55.6617 3.39927 56.2171 2.53418 57.0161 1.92048C57.7685 1.27886 58.7319 0.920861 59.7317 0.911267H74.7126L74.2444 3.03061H59.2626C58.8805 3.03524 58.513 3.1735 58.2268 3.42017C57.92 3.65633 57.7057 3.98803 57.6199 4.35975L56.6007 9.01929H72.9332L72.4785 11.1548H56.1481L54.232 19.9117L52.0549 19.9198ZM23.9565 19.9198L25.6302 12.271C25.8714 11.1777 26.4967 10.2008 27.3982 9.50875C28.2599 8.77022 29.3662 8.35953 30.5137 8.3522H42.0507C42.1973 8.35106 42.3382 8.29714 42.4464 8.20081C42.5755 8.1083 42.6674 7.97482 42.7064 7.82337L43.3806 4.71802C43.3857 4.70199 43.3885 4.68534 43.3889 4.66857C43.3889 4.65444 43.3889 4.64636 43.3661 4.61912L43.3496 4.59792C43.3462 4.59355 43.3423 4.5895 43.3382 4.58581C43.3071 4.57619 43.2744 4.57208 43.2418 4.5737H27.7369L28.5313 0.977875H43.6686C44.1919 0.96034 44.7121 1.06259 45.1875 1.27641C45.6629 1.49024 46.0802 1.80969 46.406 2.20912C46.8833 2.78794 47.1396 3.51029 47.131 4.25277C47.1296 4.53937 47.0984 4.8251 47.0378 5.10556L46.3718 8.1776C46.1313 9.23598 45.5237 10.1812 44.6515 10.854C43.8148 11.561 42.747 11.9546 41.6396 11.9642H30.0994C29.9112 11.9688 29.7314 12.0406 29.594 12.166C29.4436 12.279 29.3384 12.4396 29.2967 12.6202V12.6262L28.4889 16.332L44.6028 16.3189L43.8115 19.9198H23.9565ZM14.9456 19.9198L15.7846 16.0616H2.12118C1.6154 16.0974 1.11495 15.9416 0.724196 15.6267C0.333438 15.3117 0.0825422 14.8619 0.0238246 14.3711V14.3429C0.00943169 14.2395 0.0014738 14.1354 0 14.031C0.00011979 13.8574 0.0188657 13.6842 0.0559305 13.5143V13.4982C0.104524 13.3008 0.171789 13.1082 0.256863 12.9229L0.270328 12.8947L0.285863 12.8664C0.528791 12.4228 0.890687 12.0517 1.33299 11.7926L18.7385 1.39771C19.1738 1.12439 19.678 0.973196 20.1958 0.960718C20.5475 0.959944 20.8941 1.04273 21.2056 1.20192C21.5424 1.35773 21.8262 1.60453 22.0232 1.91298C22.2203 2.22143 22.3222 2.57853 22.3169 2.9418C22.3165 3.12026 22.2992 3.2983 22.2651 3.47366V3.49283L20.3159 12.4486H24.0766L23.2843 16.0565H19.5267L18.6877 19.9147L14.9456 19.9198ZM6.93941 12.3557H16.6753L18.1253 5.7131L6.93941 12.3557Z" fill="#FCFFFA"/>
</svg>
