<svg width="247" height="36" viewBox="0 0 247 36" fill="none" xmlns="http://www.w3.org/2000/svg">
<path fill-rule="evenodd" clip-rule="evenodd" d="M37.7324 34.8319V16.6064C37.7324 11.4364 34.9817 8.98199 30.3625 8.98199C26.5216 8.98199 23.2002 11.2799 21.7468 13.5774C20.8125 10.7052 18.477 8.98199 14.792 8.98199C10.9512 8.98199 7.62973 11.3841 6.5915 12.8985V9.60888H0V34.8319H6.5915V17.86C7.57777 16.4499 9.49805 14.8832 11.7816 14.8832C14.4805 14.8832 15.5185 16.5542 15.5185 18.9043V34.8319H22.1619V17.8077C23.0962 16.4499 25.0165 14.8832 27.352 14.8832C30.051 14.8832 31.0889 16.5542 31.0889 18.9043L31.0892 34.8319H37.7324ZM55.8462 35.4585C47.5939 35.4585 42.6112 29.4007 42.6112 22.1942C42.6112 15.0398 47.5937 8.98226 55.8462 8.98226C64.1504 8.98226 69.1331 15.0401 69.1331 22.1942C69.1331 29.4007 64.1506 35.4585 55.8462 35.4585ZM55.8462 29.5575C59.9463 29.5575 62.282 26.163 62.282 22.1942C62.282 18.2777 59.9466 14.8832 55.8462 14.8832C51.7458 14.8832 49.4622 18.2777 49.4622 22.1942C49.4622 26.163 51.746 29.5575 55.8462 29.5575ZM97.5233 34.8319V17.0242C97.5233 12.1153 94.8763 8.98199 89.3747 8.98199C85.2746 8.98199 82.2124 10.9664 80.6034 12.8985V9.60888H74.0116V34.8319H80.6034V17.86C81.6933 16.3456 83.7175 14.8832 86.3126 14.8832C89.1152 14.8832 90.9318 16.0844 90.9318 19.5832V34.8319H97.5233ZM115.689 35.4585C107.437 35.4585 102.454 29.4007 102.454 22.1942C102.454 15.0398 107.436 8.98226 115.689 8.98226C123.993 8.98226 128.976 15.0401 128.976 22.1942C128.976 29.4007 123.993 35.4585 115.689 35.4585ZM115.689 29.5575C119.789 29.5575 122.125 26.163 122.125 22.1942C122.125 18.2777 119.789 14.8832 115.689 14.8832C111.588 14.8832 109.305 18.2777 109.305 22.1942C109.305 26.163 111.589 29.5575 115.689 29.5575ZM140.446 26.7374C141.536 28.3563 143.975 29.5572 146.103 29.5572C149.944 29.5572 152.487 26.6328 152.487 22.2462C152.487 17.8597 149.944 14.8829 146.103 14.8829C143.975 14.8829 141.536 16.1361 140.446 17.8074V26.7374ZM140.446 34.8319H133.854V0H140.446V12.8465C142.418 10.2878 145.221 8.98199 148.179 8.98199C154.563 8.98199 159.286 13.9952 159.286 22.2462C159.286 30.6539 154.511 35.4582 148.179 35.4582C145.169 35.4582 142.418 34.1004 140.446 31.5937V34.8319ZM185.912 34.8319H179.32V32.2208C177.608 34.2575 174.649 35.4585 171.379 35.4585C167.383 35.4585 162.66 32.7429 162.66 27.1031C162.66 21.2022 167.383 18.9566 171.379 18.9566C174.701 18.9566 177.659 20.0532 179.32 22.0376V18.6431C179.32 16.0844 177.14 14.4132 173.819 14.4132C171.12 14.4132 168.629 15.4055 166.501 17.3899L164.009 12.9511C167.071 10.2355 171.016 8.98226 174.96 8.98226C180.67 8.98226 185.912 11.2801 185.912 18.5389L185.912 34.8319ZM174.026 30.9674C176.154 30.9674 178.23 30.2362 179.32 28.7741V25.6407C178.23 24.1786 176.154 23.4474 174.026 23.4474C171.431 23.4474 169.303 24.8052 169.303 27.2597C169.303 29.6095 171.431 30.9674 174.026 30.9674ZM215.963 34.8319V17.0242C215.963 12.1153 213.316 8.98199 207.814 8.98199C203.714 8.98199 200.652 10.9664 199.043 12.8985V9.60888H192.451V34.8319H199.043V17.86C200.133 16.3456 202.157 14.8832 204.752 14.8832C207.555 14.8832 209.371 16.0844 209.371 19.5832V34.8319H215.963ZM247 34.8319L236.776 21.0453L246.689 9.60888H238.592L229.094 20.8364V0H222.502V34.8319H229.094V28.3563L232.104 25.1187L238.748 34.8319H247Z" fill="#FCFFFA"/>
</svg>
