<svg width="117" height="38" viewBox="0 0 117 38" fill="none" xmlns="http://www.w3.org/2000/svg">
<path fill-rule="evenodd" clip-rule="evenodd" d="M44.4126 0.654205L29.0849 37.4529H19.1191L11.5906 8.06844C11.1031 6.2694 10.724 5.6152 9.31584 4.85197C7.04103 3.59809 3.30387 2.45325 0 1.74453L0.216644 0.654205H16.3027C18.3608 0.654205 20.2023 2.01711 20.6898 4.41584L24.6436 25.6773L34.501 0.654205H44.4126ZM67.1064 37.998C62.8817 37.998 58.7654 37.0713 56.599 36.09L58.278 28.0215C60.4986 29.0573 63.2608 30.4203 67.9729 30.3112C70.7352 30.3112 73.6057 29.2208 73.6599 26.7131C73.6599 25.1321 72.4142 23.9873 68.7311 22.1882C65.1565 20.3892 60.3903 17.4453 60.4986 12.1572C60.5528 5.01551 67.1064 0 76.4763 0C80.1052 0 83.0298 0.817748 85.3044 1.6355L83.6255 9.43137C79.401 7.46876 75.6639 7.57779 74.3099 7.79586C71.6018 8.12296 70.356 9.54043 70.3019 10.8487C70.1935 15.2101 83.5714 15.7553 83.5714 25.4592C83.5174 33.0916 77.0179 37.998 67.1064 37.998ZM107.078 31.9467H94.9455L92.9955 37.4529H83.084L97.2206 3.38003C97.9241 1.74453 99.4408 0.654205 101.283 0.654205H109.352L116.989 37.4529H108.215L107.078 31.9467ZM105.507 24.4234L102.637 10.5762L97.6538 24.4234H105.507ZM57.8989 0.654205L50.0995 37.4529H40.6754L48.4748 0.654205H57.8989Z" fill="#FCFFFA"/>
</svg>
