<svg width="16" height="16" viewBox="0 0 16 16" fill="none" xmlns="http://www.w3.org/2000/svg">
<mask id="path-1-inside-1_331_115" fill="white">
<path d="M3.23508 5.23499C3.30539 5.16477 3.4007 5.12532 3.50008 5.12532C3.59945 5.12532 3.69476 5.16477 3.76508 5.23499L8.00008 9.46937L12.2351 5.235C12.3062 5.16876 12.4002 5.13269 12.4973 5.13441C12.5945 5.13612 12.6872 5.17548 12.7559 5.24418C12.8246 5.31289 12.864 5.40558 12.8657 5.50273C12.8674 5.59988 12.8313 5.69391 12.7651 5.765L8.26508 10.265C8.19476 10.3352 8.09945 10.3747 8.00008 10.3747C7.9007 10.3747 7.80539 10.3352 7.73508 10.265L3.23508 5.76499C3.16485 5.69468 3.12541 5.59937 3.12541 5.49999C3.12541 5.40062 3.16485 5.30531 3.23508 5.23499Z"/>
</mask>
<path d="M3.23508 5.23499C3.30539 5.16477 3.4007 5.12532 3.50008 5.12532C3.59945 5.12532 3.69476 5.16477 3.76508 5.23499L8.00008 9.46937L12.2351 5.235C12.3062 5.16876 12.4002 5.13269 12.4973 5.13441C12.5945 5.13612 12.6872 5.17548 12.7559 5.24418C12.8246 5.31289 12.864 5.40558 12.8657 5.50273C12.8674 5.59988 12.8313 5.69391 12.7651 5.765L8.26508 10.265C8.19476 10.3352 8.09945 10.3747 8.00008 10.3747C7.9007 10.3747 7.80539 10.3352 7.73508 10.265L3.23508 5.76499C3.16485 5.69468 3.12541 5.59937 3.12541 5.49999C3.12541 5.40062 3.16485 5.30531 3.23508 5.23499Z" fill="#011F31"/>
<path d="M3.23508 5.23499L2.52841 4.52745L2.52753 4.52833L3.23508 5.23499ZM3.76508 5.23499L4.47213 4.52784L4.47174 4.52745L3.76508 5.23499ZM8.00008 9.46937L7.29302 10.1765L8.00008 10.8835L8.70713 10.1765L8.00008 9.46937ZM12.2351 5.235L11.5534 4.50338L11.5405 4.51539L11.528 4.52784L12.2351 5.235ZM12.7651 5.765L13.4722 6.4721L13.4847 6.45963L13.4967 6.44672L12.7651 5.765ZM8.26508 10.265L8.97174 10.9725L8.97218 10.9721L8.26508 10.265ZM8.00008 10.3747L8.00008 9.37466L8.00008 10.3747ZM7.73508 10.265L7.02797 10.9721L7.02841 10.9725L7.73508 10.265ZM3.23508 5.76499L2.52753 6.47166L2.52797 6.4721L3.23508 5.76499ZM3.94174 5.94254C3.82455 6.05958 3.6657 6.12532 3.50008 6.12532L3.50008 4.12532C3.1357 4.12532 2.78622 4.26996 2.52841 4.52745L3.94174 5.94254ZM3.50008 6.12532C3.33445 6.12532 3.1756 6.05958 3.05841 5.94254L4.47174 4.52745C4.21393 4.26996 3.86445 4.12532 3.50008 4.12532L3.50008 6.12532ZM3.05802 5.94215L7.29302 10.1765L8.70713 8.76221L4.47213 4.52784L3.05802 5.94215ZM8.70713 10.1765L12.9421 5.94215L11.528 4.52784L7.29302 8.76221L8.70713 10.1765ZM12.9168 5.96661C12.7983 6.077 12.6416 6.13711 12.4797 6.13425L12.515 4.13456C12.1588 4.12828 11.814 4.26051 11.5534 4.50338L12.9168 5.96661ZM12.4797 6.13425C12.3178 6.13139 12.1633 6.0658 12.0488 5.95129L13.463 4.53708C13.2111 4.28516 12.8712 4.14085 12.515 4.13456L12.4797 6.13425ZM12.0488 5.95129C11.9343 5.83678 11.8687 5.68229 11.8658 5.52038L13.8655 5.48509C13.8592 5.12888 13.7149 4.789 13.463 4.53708L12.0488 5.95129ZM11.8658 5.52038C11.863 5.35846 11.9231 5.20175 12.0335 5.08327L13.4967 6.44672C13.7396 6.18606 13.8718 5.84131 13.8655 5.48509L11.8658 5.52038ZM12.058 5.05789L7.55797 9.55789L8.97218 10.9721L13.4722 6.4721L12.058 5.05789ZM7.55841 9.55745C7.6756 9.44041 7.83445 9.37466 8.00008 9.37466L8.00008 11.3747C8.36445 11.3747 8.71393 11.23 8.97174 10.9725L7.55841 9.55745ZM8.00008 9.37466C8.1657 9.37466 8.32455 9.4404 8.44174 9.55745L7.02841 10.9725C7.28622 11.23 7.6357 11.3747 8.00008 11.3747L8.00008 9.37466ZM8.44218 9.55789L3.94218 5.05789L2.52797 6.4721L7.02797 10.9721L8.44218 9.55789ZM3.94262 5.05833C4.05967 5.17552 4.12541 5.33437 4.12541 5.49999L2.12541 5.49999C2.12541 5.86437 2.27004 6.21385 2.52753 6.47166L3.94262 5.05833ZM4.12541 5.49999C4.12541 5.66562 4.05967 5.82447 3.94262 5.94166L2.52753 4.52833C2.27004 4.78614 2.12541 5.13562 2.12541 5.49999L4.12541 5.49999Z" fill="#011F31" mask="url(#path-1-inside-1_331_115)"/>
</svg>
