<svg width="20" height="17" viewBox="0 0 20 17" fill="none" xmlns="http://www.w3.org/2000/svg">
<path fill-rule="evenodd" clip-rule="evenodd" d="M0.979736 1.72217C0.979736 1.30795 1.31552 0.972168 1.72974 0.972168H18.2703C18.6845 0.972168 19.0203 1.30795 19.0203 1.72217C19.0203 2.13638 18.6845 2.47217 18.2703 2.47217H1.72974C1.31552 2.47217 0.979736 2.13638 0.979736 1.72217ZM0.979736 8.72217C0.979736 8.30795 1.31552 7.97217 1.72974 7.97217H18.2703C18.6845 7.97217 19.0203 8.30795 19.0203 8.72217C19.0203 9.13638 18.6845 9.47217 18.2703 9.47217H1.72974C1.31552 9.47217 0.979736 9.13638 0.979736 8.72217ZM1.72974 14.9722C1.31552 14.9722 0.979736 15.308 0.979736 15.7222C0.979736 16.1364 1.31552 16.4722 1.72974 16.4722H18.2703C18.6845 16.4722 19.0203 16.1364 19.0203 15.7222C19.0203 15.308 18.6845 14.9722 18.2703 14.9722H1.72974Z" fill="#0A8300"/>
</svg>
