<svg width="20" height="20" viewBox="0 0 20 20" fill="none" xmlns="http://www.w3.org/2000/svg">
<path d="M10 1.5625C8.33122 1.5625 6.69992 2.05735 5.31238 2.98448C3.92484 3.9116 2.84338 5.22936 2.20477 6.77111C1.56616 8.31286 1.39907 10.0094 1.72463 11.6461C2.05019 13.2828 2.85379 14.7862 4.03379 15.9662C5.2138 17.1462 6.71721 17.9498 8.35393 18.2754C9.99064 18.6009 11.6871 18.4338 13.2289 17.7952C14.7706 17.1566 16.0884 16.0752 17.0155 14.6876C17.9427 13.3001 18.4375 11.6688 18.4375 10C18.435 7.763 17.5453 5.61833 15.9635 4.03653C14.3817 2.45473 12.237 1.56498 10 1.5625ZM10 16.5625C8.70206 16.5625 7.43327 16.1776 6.35407 15.4565C5.27488 14.7354 4.43374 13.7105 3.93704 12.5114C3.44034 11.3122 3.31038 9.99272 3.5636 8.71972C3.81682 7.44672 4.44183 6.27739 5.35962 5.35961C6.2774 4.44183 7.44672 3.81681 8.71972 3.5636C9.99272 3.31038 11.3122 3.44034 12.5114 3.93704C13.7105 4.43374 14.7354 5.27487 15.4565 6.35407C16.1776 7.43327 16.5625 8.70206 16.5625 10C16.5606 11.7399 15.8686 13.408 14.6383 14.6383C13.408 15.8686 11.7399 16.5606 10 16.5625ZM13.4375 11.5625C13.4375 12.2255 13.1741 12.8614 12.7053 13.3303C12.2364 13.7991 11.6005 14.0625 10.9375 14.0625V14.375C10.9375 14.6236 10.8387 14.8621 10.6629 15.0379C10.4871 15.2137 10.2486 15.3125 10 15.3125C9.75136 15.3125 9.51291 15.2137 9.33709 15.0379C9.16128 14.8621 9.0625 14.6236 9.0625 14.375V14.0625H8.125C7.87636 14.0625 7.63791 13.9637 7.46209 13.7879C7.28628 13.6121 7.1875 13.3736 7.1875 13.125C7.1875 12.8764 7.28628 12.6379 7.46209 12.4621C7.63791 12.2863 7.87636 12.1875 8.125 12.1875H10.9375C11.1033 12.1875 11.2622 12.1217 11.3794 12.0044C11.4967 11.8872 11.5625 11.7283 11.5625 11.5625C11.5625 11.3967 11.4967 11.2378 11.3794 11.1206C11.2622 11.0033 11.1033 10.9375 10.9375 10.9375H9.0625C8.39946 10.9375 7.76358 10.6741 7.29474 10.2053C6.8259 9.73643 6.5625 9.10054 6.5625 8.4375C6.5625 7.77446 6.8259 7.13857 7.29474 6.66973C7.76358 6.20089 8.39946 5.9375 9.0625 5.9375V5.625C9.0625 5.37636 9.16128 5.1379 9.33709 4.96209C9.51291 4.78627 9.75136 4.6875 10 4.6875C10.2486 4.6875 10.4871 4.78627 10.6629 4.96209C10.8387 5.1379 10.9375 5.37636 10.9375 5.625V5.9375H11.875C12.1236 5.9375 12.3621 6.03627 12.5379 6.21209C12.7137 6.3879 12.8125 6.62636 12.8125 6.875C12.8125 7.12364 12.7137 7.3621 12.5379 7.53791C12.3621 7.71373 12.1236 7.8125 11.875 7.8125H9.0625C8.89674 7.8125 8.73777 7.87835 8.62056 7.99556C8.50335 8.11277 8.4375 8.27174 8.4375 8.4375C8.4375 8.60326 8.50335 8.76223 8.62056 8.87944C8.73777 8.99665 8.89674 9.0625 9.0625 9.0625H10.9375C11.6005 9.0625 12.2364 9.32589 12.7053 9.79473C13.1741 10.2636 13.4375 10.8995 13.4375 11.5625Z" fill="#575757"/>
</svg>
