<svg width="20" height="20" viewBox="0 0 20 20" fill="none" xmlns="http://www.w3.org/2000/svg">
<path d="M17.3727 12.3797L13.6922 10.7304L13.682 10.7257C13.491 10.644 13.2825 10.6112 13.0756 10.6303C12.8687 10.6494 12.6698 10.7198 12.4969 10.8351C12.4765 10.8486 12.457 10.8632 12.4383 10.8789L10.5367 12.5C9.33204 11.9148 8.08829 10.6804 7.50313 9.49137L9.12657 7.5609C9.14219 7.54137 9.15704 7.52184 9.1711 7.50075C9.28394 7.32833 9.35239 7.13068 9.37039 6.92541C9.38838 6.72014 9.35534 6.5136 9.27423 6.32418V6.31481L7.62032 2.62809C7.51309 2.38064 7.3287 2.17451 7.09468 2.04046C6.86067 1.90642 6.58958 1.85165 6.32188 1.88434C5.26326 2.02364 4.29155 2.54353 3.58824 3.34691C2.88492 4.15029 2.49809 5.18222 2.50001 6.24996C2.50001 12.4531 7.54688 17.5 13.75 17.5C14.8177 17.5019 15.8497 17.1151 16.6531 16.4117C17.4564 15.7084 17.9763 14.7367 18.1156 13.6781C18.1484 13.4105 18.0937 13.1395 17.9598 12.9055C17.8259 12.6715 17.62 12.487 17.3727 12.3797ZM13.75 16.25C11.0987 16.2471 8.55687 15.1926 6.68214 13.3178C4.8074 11.4431 3.7529 8.90124 3.75001 6.24996C3.74707 5.48706 4.02192 4.74918 4.52324 4.17411C5.02456 3.59904 5.71806 3.22611 6.47423 3.12496C6.47392 3.12808 6.47392 3.13122 6.47423 3.13434L8.11485 6.80621L6.50001 8.73903C6.48362 8.75789 6.46873 8.778 6.45548 8.79918C6.33791 8.97959 6.26894 9.1873 6.25525 9.4022C6.24157 9.61709 6.28362 9.83188 6.37735 10.0257C7.08516 11.4734 8.54376 12.9211 10.007 13.6281C10.2023 13.7209 10.4184 13.7615 10.634 13.7459C10.8497 13.7303 11.0576 13.659 11.2375 13.539C11.2576 13.5255 11.2769 13.5109 11.2953 13.4953L13.1945 11.875L16.8664 13.5195H16.875C16.7751 14.2767 16.4027 14.9716 15.8275 15.4742C15.2524 15.9767 14.5138 16.2525 13.75 16.25Z" fill="#0A8300"/>
</svg>
