<svg width="89" height="25" viewBox="0 0 89 25" fill="none" xmlns="http://www.w3.org/2000/svg">
<path d="M0.0227273 24V0.727272H4.94318V19.9432H14.9205V24H0.0227273ZM38.6591 12.3636C38.6591 14.9015 38.178 17.0606 37.2159 18.8409C36.2614 20.6212 34.9583 21.9811 33.3068 22.9205C31.6629 23.8523 29.8144 24.3182 27.7614 24.3182C25.6932 24.3182 23.8371 23.8485 22.1932 22.9091C20.5492 21.9697 19.25 20.6098 18.2955 18.8295C17.3409 17.0492 16.8636 14.8939 16.8636 12.3636C16.8636 9.82576 17.3409 7.66667 18.2955 5.88636C19.25 4.10606 20.5492 2.75 22.1932 1.81818C23.8371 0.878787 25.6932 0.40909 27.7614 0.40909C29.8144 0.40909 31.6629 0.878787 33.3068 1.81818C34.9583 2.75 36.2614 4.10606 37.2159 5.88636C38.178 7.66667 38.6591 9.82576 38.6591 12.3636ZM33.6705 12.3636C33.6705 10.7197 33.4242 9.33333 32.9318 8.20455C32.447 7.07576 31.7614 6.2197 30.875 5.63636C29.9886 5.05303 28.9508 4.76136 27.7614 4.76136C26.572 4.76136 25.5341 5.05303 24.6477 5.63636C23.7614 6.2197 23.072 7.07576 22.5795 8.20455C22.0947 9.33333 21.8523 10.7197 21.8523 12.3636C21.8523 14.0076 22.0947 15.3939 22.5795 16.5227C23.072 17.6515 23.7614 18.5076 24.6477 19.0909C25.5341 19.6742 26.572 19.9659 27.7614 19.9659C28.9508 19.9659 29.9886 19.6742 30.875 19.0909C31.7614 18.5076 32.447 17.6515 32.9318 16.5227C33.4242 15.3939 33.6705 14.0076 33.6705 12.3636Z" fill="#0A8300"/>
<path d="M57.7358 8.25C57.5767 7.69697 57.3532 7.20833 57.0653 6.78409C56.7775 6.35227 56.4252 5.98864 56.0085 5.69318C55.5994 5.39015 55.1297 5.15909 54.5994 5C54.0767 4.84091 53.4972 4.76136 52.8608 4.76136C51.6714 4.76136 50.6259 5.05682 49.7244 5.64773C48.8305 6.23864 48.1335 7.09848 47.6335 8.22727C47.1335 9.34848 46.8835 10.7197 46.8835 12.3409C46.8835 13.9621 47.1297 15.3409 47.6222 16.4773C48.1146 17.6136 48.8116 18.4811 49.7131 19.0795C50.6146 19.6705 51.679 19.9659 52.9062 19.9659C54.0199 19.9659 54.9706 19.7689 55.7585 19.375C56.554 18.9735 57.16 18.4091 57.5767 17.6818C58.0009 16.9545 58.2131 16.0947 58.2131 15.1023L59.2131 15.25H53.2131V11.5455H62.9517V14.4773C62.9517 16.5227 62.5199 18.2803 61.6562 19.75C60.7926 21.2121 59.6032 22.3409 58.0881 23.1364C56.5729 23.9242 54.8381 24.3182 52.8835 24.3182C50.7017 24.3182 48.785 23.8371 47.1335 22.875C45.482 21.9053 44.1941 20.5303 43.2699 18.75C42.3532 16.9621 41.8949 14.8409 41.8949 12.3864C41.8949 10.5 42.1676 8.81818 42.7131 7.34091C43.2661 5.85606 44.0388 4.59848 45.0312 3.56818C46.0237 2.53788 47.179 1.75379 48.4972 1.21591C49.8153 0.678029 51.2434 0.40909 52.7812 0.40909C54.0994 0.40909 55.3267 0.602272 56.4631 0.988636C57.5994 1.36742 58.607 1.9053 59.4858 2.60227C60.3722 3.29924 61.0956 4.12879 61.6562 5.09091C62.2169 6.04545 62.5767 7.09848 62.7358 8.25H57.7358ZM88.0341 12.3636C88.0341 14.9015 87.553 17.0606 86.5909 18.8409C85.6364 20.6212 84.3333 21.9811 82.6818 22.9205C81.0379 23.8523 79.1894 24.3182 77.1364 24.3182C75.0682 24.3182 73.2121 23.8485 71.5682 22.9091C69.9242 21.9697 68.625 20.6098 67.6705 18.8295C66.7159 17.0492 66.2386 14.8939 66.2386 12.3636C66.2386 9.82576 66.7159 7.66667 67.6705 5.88636C68.625 4.10606 69.9242 2.75 71.5682 1.81818C73.2121 0.878787 75.0682 0.40909 77.1364 0.40909C79.1894 0.40909 81.0379 0.878787 82.6818 1.81818C84.3333 2.75 85.6364 4.10606 86.5909 5.88636C87.553 7.66667 88.0341 9.82576 88.0341 12.3636ZM83.0455 12.3636C83.0455 10.7197 82.7992 9.33333 82.3068 8.20455C81.822 7.07576 81.1364 6.2197 80.25 5.63636C79.3636 5.05303 78.3258 4.76136 77.1364 4.76136C75.947 4.76136 74.9091 5.05303 74.0227 5.63636C73.1364 6.2197 72.447 7.07576 71.9545 8.20455C71.4697 9.33333 71.2273 10.7197 71.2273 12.3636C71.2273 14.0076 71.4697 15.3939 71.9545 16.5227C72.447 17.6515 73.1364 18.5076 74.0227 19.0909C74.9091 19.6742 75.947 19.9659 77.1364 19.9659C78.3258 19.9659 79.3636 19.6742 80.25 19.0909C81.1364 18.5076 81.822 17.6515 82.3068 16.5227C82.7992 15.3939 83.0455 14.0076 83.0455 12.3636Z" fill="#3B9C33"/>
</svg>
